<svg xmlns="http://www.w3.org/2000/svg" viewBox="-24663 -17672.217 146.732 38.967">
  <defs>
    <style>
      .cls-1 {
        fill: #e6b104;
      }
    </style>
  </defs>
  <g id="Group_714" data-name="Group 714" transform="translate(-24663 -17672.217)">
    <path id="Path_466" data-name="Path 466" class="cls-1" d="M58.865,33.613h-.2A18.856,18.856,0,0,1,52.777,32.6,17.091,17.091,0,0,1,47.7,29.96h-.2l2.232-4.465.2.2A14.6,14.6,0,0,0,54.2,28.133a13.643,13.643,0,0,0,4.871.812h.2a5.149,5.149,0,0,0,3.247-.812A2.331,2.331,0,0,0,63.736,25.9a1.978,1.978,0,0,0-.812-1.827A14.243,14.243,0,0,0,61.1,22.857c-.812-.2-1.827-.609-3.247-1.015a26.78,26.78,0,0,1-4.465-1.624,8.986,8.986,0,0,1-3.044-2.435,8.148,8.148,0,0,1-1.421-4.262,7.332,7.332,0,0,1,2.841-6.088A12.475,12.475,0,0,1,59.068,5.2h.2a21.673,21.673,0,0,1,5.074.609A15,15,0,0,1,68.81,7.838h.2L66.78,12.506l-.2-.2a12.97,12.97,0,0,0-3.856-1.624,13.791,13.791,0,0,0-3.856-.609h-.2a5.375,5.375,0,0,0-2.841.609A2.546,2.546,0,0,0,54.6,12.912a2.232,2.232,0,0,0,1.218,2.029,27.357,27.357,0,0,0,4.262,1.624,40.432,40.432,0,0,1,4.668,1.624A9.769,9.769,0,0,1,68,20.624a7.319,7.319,0,0,1,1.421,4.465,7.347,7.347,0,0,1-3.044,6.291,12.666,12.666,0,0,1-7.509,2.232Z" transform="translate(48.901 5.353)"/>
    <rect id="Rectangle_199" data-name="Rectangle 199" class="cls-1" width="6.088" height="38.763" transform="translate(32.472)"/>
    <path id="Path_467" data-name="Path 467" class="cls-1" d="M26.586,3.45C23.948,1.218,21.513,0,15.221,0H0V38.763H6.291V26.789h9.133c4.871,0,8.524-1.218,11.162-3.653s4.059-5.683,4.059-10.147c-.2-4.059-1.421-7.306-4.059-9.539M24.354,15.424a5.417,5.417,0,0,1-5.277,5.48H10.553L3.044,24.76l2.841-7.712V10.756a5.417,5.417,0,0,1,5.277-5.48H19.28a5.417,5.417,0,0,1,5.277,5.48v4.668Z"/>
    <path id="Path_468" data-name="Path 468" class="cls-1" d="M44.351,8.853C42.119,6.418,38.871,5.2,34.406,5.2A14.463,14.463,0,0,0,27.1,7.027,12.228,12.228,0,0,0,22.027,12.1,15.011,15.011,0,0,0,20.2,19.406a13.944,13.944,0,0,0,1.827,7.306A13.527,13.527,0,0,0,27.1,31.786a15.237,15.237,0,0,0,7.509,1.827A16.827,16.827,0,0,0,41.1,32.4a17.287,17.287,0,0,0,5.074-3.45l.2-.2-3.247-3.45-.2.2a9.167,9.167,0,0,1-3.45,2.232,10.6,10.6,0,0,1-4.262.812,8.123,8.123,0,0,1-5.48-1.827,10.03,10.03,0,0,1-3.044-4.871H47.8V19.406c0-4.465-1.218-7.915-3.45-10.553M26.694,16.565A8.018,8.018,0,0,1,29.13,12.1a8.123,8.123,0,0,1,5.48-1.827,8.123,8.123,0,0,1,5.48,1.827,7.26,7.26,0,0,1,2.232,4.465Z" transform="translate(20.796 5.353)"/>
    <path id="Path_469" data-name="Path 469" class="cls-1" d="M59.263,33.41V15.145a9.348,9.348,0,0,0-3.044-7.306C54.189,6.012,51.551,5.2,47.9,5.2a19.728,19.728,0,0,0-6.291.812A34.2,34.2,0,0,0,35.924,8.65h-.2l2.638,4.262h.2a14.274,14.274,0,0,1,8.118-2.638c2.029,0,3.856.406,4.871,1.421a5.336,5.336,0,0,1,1.624,4.059v.812H44.853A12.446,12.446,0,0,0,37.141,18.8,7.608,7.608,0,0,0,34.3,24.886a8.182,8.182,0,0,0,1.218,4.465,8.372,8.372,0,0,0,3.45,3.044,10.676,10.676,0,0,0,5.277,1.218c4.059,0,7.1-1.218,9.133-3.45V33.41Zm-6.088-9.945a5.006,5.006,0,0,1-2.435,3.653,8.943,8.943,0,0,1-5.277,1.421,6.723,6.723,0,0,1-3.856-1.015,3.415,3.415,0,0,1-1.421-3.044,3.876,3.876,0,0,1,1.421-2.841c.2-.2,1.421-.609,5.683-.609,2.638,0,5.48.2,6.088.2Z" transform="translate(35.312 5.353)"/>
    <path id="Path_470" data-name="Path 470" class="cls-1" d="M82.851,8.853C80.619,6.418,77.371,5.2,72.906,5.2A14.463,14.463,0,0,0,65.6,7.027,12.228,12.228,0,0,0,60.527,12.1,15.011,15.011,0,0,0,58.7,19.406a13.944,13.944,0,0,0,1.827,7.306A13.527,13.527,0,0,0,65.6,31.786a15.237,15.237,0,0,0,7.509,1.827A16.827,16.827,0,0,0,79.6,32.4a17.287,17.287,0,0,0,5.074-3.45l.2-.2-3.247-3.45-.2.2a9.167,9.167,0,0,1-3.45,2.232,10.6,10.6,0,0,1-4.262.812,8.123,8.123,0,0,1-5.48-1.827,10.03,10.03,0,0,1-3.044-4.871H86.3V19.406a18.164,18.164,0,0,0-3.45-10.553m-17.86,7.712A8.018,8.018,0,0,1,67.427,12.1a9.133,9.133,0,0,1,10.959,0,7.26,7.26,0,0,1,2.232,4.465Z" transform="translate(60.431 5.353)"/>
  </g>
</svg>
